<?xml version="1.0" encoding="UTF-8" standalone="no" ?>
<!DOCTYPE svg PUBLIC "-//W3C//DTD SVG 1.1//EN" "http://www.w3.org/Graphics/SVG/1.1/DTD/svg11.dtd">
<svg xmlns="http://www.w3.org/2000/svg" xmlns:xlink="http://www.w3.org/1999/xlink" version="1.1" width="1080" height="1080" viewBox="0 0 1080 1080" xml:space="preserve">
<desc>Created with Fabric.js 5.2.4</desc>
<defs>
</defs>
<g transform="matrix(1 0 0 1 540 540)" id="906db6b8-387b-498b-ae60-0ea86586640b"  >
</g>
<g transform="matrix(1 0 0 1 540 540)" id="848481e3-9bb0-4caf-b5c1-768383e6d1f5"  >
<rect style="stroke: none; stroke-width: 1; stroke-dasharray: none; stroke-linecap: butt; stroke-dashoffset: 0; stroke-linejoin: miter; stroke-miterlimit: 4; fill: rgb(255,255,255); fill-rule: nonzero; opacity: 1; visibility: hidden;" vector-effect="non-scaling-stroke"  x="-540" y="-540" rx="0" ry="0" width="1080" height="1080" />
</g>
<g transform="matrix(2.85 0 0 2.85 540 540)"  >
<g style="" vector-effect="non-scaling-stroke"   >
		<g transform="matrix(0.73 0 0 0.73 -110.94 92.39)"  >
<polygon style="stroke: none; stroke-width: 1; stroke-dasharray: none; stroke-linecap: butt; stroke-dashoffset: 0; stroke-linejoin: miter; stroke-miterlimit: 4; fill: rgb(0,145,226); fill-rule: nonzero; opacity: 1;" vector-effect="non-scaling-stroke"  points="46.08,-0.62 31.6,13.86 55.08,37.34 -73.8,37.34 -73.8,-95.78 -94.28,-95.78 -94.28,57.82 55.08,57.82 31.6,81.3 46.08,95.78 94.28,47.58 " />
</g>
		<g transform="matrix(0.73 0 0 0.73 110.66 -92.67)"  >
<polygon style="stroke: none; stroke-width: 1; stroke-dasharray: none; stroke-linecap: butt; stroke-dashoffset: 0; stroke-linejoin: miter; stroke-miterlimit: 4; fill: rgb(0,145,226); fill-rule: nonzero; opacity: 1;" vector-effect="non-scaling-stroke"  points="-55.08,-57.82 -31.6,-81.3 -46.08,-95.78 -94.28,-47.58 -46.08,0.62 -31.6,-13.86 -55.08,-37.34 73.8,-37.34 73.8,95.78 94.28,95.78 94.28,-57.82 " />
</g>
		<g transform="matrix(2.14 0 0 2.14 0.02 -6.29)"  >
<path style="stroke: none; stroke-width: 1; stroke-dasharray: none; stroke-linecap: butt; stroke-dashoffset: 0; stroke-linejoin: miter; stroke-miterlimit: 4; fill: rgb(0,145,226); fill-rule: nonzero; opacity: 1;" vector-effect="non-scaling-stroke"  transform=" translate(-61.42, -44.08)" d="M 121.68 33.34 C 121.34 33.06 118.26 30.720000000000002 111.65 30.720000000000002 C 109.94000000000001 30.720000000000002 108.17 30.890000000000004 106.46000000000001 31.180000000000003 C 105.21000000000001 22.46 97.97000000000001 18.240000000000002 97.68 18.020000000000003 L 95.91000000000001 16.990000000000002 L 94.77000000000001 18.64 C 93.35000000000001 20.86 92.26 23.37 91.64000000000001 25.93 C 90.44000000000001 30.89 91.18000000000002 35.56 93.69000000000001 39.55 C 90.67000000000002 41.26 85.77000000000001 41.66 84.74000000000001 41.72 L 3.8100000000000023 41.72 C 1.7000000000000024 41.72 -0.009999999999997566 43.43 -0.009999999999997566 45.54 C -0.11999999999999757 52.61 1.0700000000000025 59.67 3.5200000000000022 66.34 C 6.310000000000002 73.63000000000001 10.470000000000002 79.05000000000001 15.830000000000002 82.35000000000001 C 21.87 86.05000000000001 31.730000000000004 88.16000000000001 42.84 88.16000000000001 C 47.85 88.16000000000001 52.870000000000005 87.70000000000002 57.830000000000005 86.79 C 64.73 85.54 71.34 83.14 77.43 79.67 C 82.45 76.76 86.95 73.06 90.77000000000001 68.73 C 97.21000000000001 61.49 101.03000000000002 53.400000000000006 103.82000000000001 46.22 C 104.22000000000001 46.22 104.56 46.22 104.96000000000001 46.22 C 111.97000000000001 46.22 116.30000000000001 43.43 118.69000000000001 41.03 C 120.29 39.550000000000004 121.48000000000002 37.72 122.34000000000002 35.67 L 122.85000000000002 34.190000000000005 L 121.68 33.34 L 121.68 33.34 z M 71.59 39.38 L 82.42 39.38 C 82.93 39.38 83.39 38.980000000000004 83.39 38.410000000000004 L 83.39 28.720000000000006 C 83.39 28.210000000000004 82.99 27.750000000000007 82.42 27.750000000000007 L 82.42 27.750000000000007 L 71.59 27.750000000000007 C 71.08 27.750000000000007 70.62 28.150000000000006 70.62 28.720000000000006 L 70.62 28.720000000000006 L 70.62 38.410000000000004 C 70.68 38.98 71.08 39.38 71.59 39.38 L 71.59 39.38 z M 56.49 11.63 L 67.32000000000001 11.63 C 67.83000000000001 11.63 68.29 11.23 68.29 10.66 L 68.29 0.97 C 68.29 0.45999999999999996 67.83000000000001 0 67.32000000000001 0 L 56.49 0 C 55.980000000000004 0 55.52 0.4 55.52 0.97 L 55.52 0.97 L 55.52 10.66 C 55.52 11.17 55.97 11.63 56.49 11.63 L 56.49 11.63 z M 56.49 25.53 L 67.32000000000001 25.53 C 67.83000000000001 25.53 68.29 25.07 68.29 24.560000000000002 L 68.29 14.870000000000003 C 68.29 14.360000000000003 67.83000000000001 13.900000000000002 67.32000000000001 13.900000000000002 L 56.49 13.900000000000002 C 55.980000000000004 13.900000000000002 55.52 14.300000000000002 55.52 14.870000000000003 L 55.52 14.870000000000003 L 55.52 24.560000000000002 C 55.52 25.08 55.97 25.53 56.49 25.53 L 56.49 25.53 z M 41.5 25.53 L 52.33 25.53 C 52.839999999999996 25.53 53.3 25.07 53.3 24.560000000000002 L 53.3 14.870000000000003 C 53.3 14.360000000000003 52.9 13.900000000000002 52.33 13.900000000000002 L 52.33 13.900000000000002 L 41.5 13.900000000000002 C 40.99 13.900000000000002 40.53 14.300000000000002 40.53 14.870000000000003 L 40.53 14.870000000000003 L 40.53 24.560000000000002 C 40.53 25.08 40.93 25.53 41.5 25.53 L 41.5 25.53 z M 26.28 25.53 L 37.11 25.53 C 37.62 25.53 38.08 25.07 38.08 24.560000000000002 L 38.08 14.870000000000003 C 38.08 14.360000000000003 37.68 13.900000000000002 37.11 13.900000000000002 L 37.11 13.900000000000002 L 26.28 13.900000000000002 C 25.77 13.900000000000002 25.310000000000002 14.300000000000002 25.310000000000002 14.870000000000003 L 25.310000000000002 24.560000000000002 C 25.37 25.08 25.77 25.53 26.28 25.53 L 26.28 25.53 z M 56.49 39.38 L 67.32000000000001 39.38 C 67.83000000000001 39.38 68.29 38.980000000000004 68.29 38.410000000000004 L 68.29 28.720000000000006 C 68.29 28.210000000000004 67.89 27.750000000000007 67.32000000000001 27.750000000000007 L 67.32000000000001 27.750000000000007 L 56.49000000000001 27.750000000000007 C 55.98000000000001 27.750000000000007 55.52000000000001 28.150000000000006 55.52000000000001 28.720000000000006 L 55.52000000000001 28.720000000000006 L 55.52000000000001 38.410000000000004 C 55.52 38.98 55.97 39.38 56.49 39.38 L 56.49 39.38 L 56.49 39.38 z M 41.5 39.38 L 52.33 39.38 C 52.839999999999996 39.38 53.3 38.980000000000004 53.3 38.410000000000004 L 53.3 38.410000000000004 L 53.3 28.720000000000006 C 53.3 28.210000000000004 52.9 27.750000000000007 52.33 27.750000000000007 L 52.33 27.750000000000007 L 41.5 27.750000000000007 C 40.99 27.750000000000007 40.53 28.150000000000006 40.53 28.720000000000006 L 40.53 28.720000000000006 L 40.53 38.410000000000004 C 40.53 38.98 40.93 39.38 41.5 39.38 L 41.5 39.38 L 41.5 39.38 z M 26.28 39.38 L 37.11 39.38 C 37.62 39.38 38.08 38.980000000000004 38.08 38.410000000000004 L 38.08 38.410000000000004 L 38.08 28.720000000000006 C 38.08 28.210000000000004 37.68 27.750000000000007 37.11 27.750000000000007 L 37.11 27.750000000000007 L 26.28 27.750000000000007 C 25.77 27.750000000000007 25.310000000000002 28.150000000000006 25.310000000000002 28.720000000000006 L 25.310000000000002 38.410000000000004 C 25.37 38.98 25.77 39.38 26.28 39.38 L 26.28 39.38 z M 11.35 39.38 L 22.18 39.38 C 22.69 39.38 23.15 38.980000000000004 23.15 38.410000000000004 L 23.15 38.410000000000004 L 23.15 28.720000000000006 C 23.15 28.210000000000004 22.75 27.750000000000007 22.18 27.750000000000007 L 22.18 27.750000000000007 L 11.35 27.750000000000007 C 10.84 27.750000000000007 10.379999999999999 28.150000000000006 10.379999999999999 28.720000000000006 L 10.379999999999999 28.720000000000006 L 10.379999999999999 38.410000000000004 C 10.44 38.98 10.84 39.38 11.35 39.38 L 11.35 39.38 L 11.35 39.38 z" stroke-linecap="round" />
</g>
</g>
</g>
</svg>